<svg xmlns="http://www.w3.org/2000/svg" viewBox="0 0 630 630">
  <rect width="630" height="630" fill="#f7df1e"/>
  <path d="m423 496c14.6 27.2 30.6 48.6 60.1 48.6 25.8 0 42.1-12.2 42.1-52.9v-230h52.8v230c0 70.6-41.6 96.1-93.6 96.1-51.1 0-82-27.2-96.1-56.3zm-162 18.2c19 11.2 43.1 19.3 67.5 19.3 35.6 0 57.3-17.3 57.3-46.1 0-30.8-23.4-42-60.7-58-49.8-21.3-81.7-46.8-81.7-98 0-48.5 37.6-88.5 96.3-88.5 28.5 0 50.8 7.8 67.5 17.6l-18.3 43.4c-13.6-8.5-32.9-14.6-49.8-14.6-29.8 0-45.4 15.6-45.4 37.6 0 26.8 17.6 37.3 53.6 52.5 53.9 22.7 89.2 47.1 89.2 101 0 53.9-40.7 93.6-104 93.6-32.9 0-61-9.2-76.3-19.3z"/>
</svg>
